# xmcd CD database file
#
# Track frame offsets:
#        150
#        5840
#        19630
#        30108
#        40694
#        45556
#        60426
#        75440
#        88438
#        102012
#        119366
#        140356
#        153102
#        169016
#        186802
#        207000
#        219134
#        236884
#
# Disc length: 3358 seconds
#
# Revision: 0
# Processed by: cddbd v1.5.2PL0 Copyright (c) Steve Scherf et al.
# Submitted via: CUERipper 2.1.6
#
DISCID=d60d1c12
DTITLE=The Highwaymen - Live Battle Creek, Michigan '93 
DYEAR=2018
DGENRE=Outlaw Country
TTITLE0=Intro > Mystery Train Instrumental
TTITLE1=Highwayman
TTITLE2=Mama, Don't Let Your Babies Grow Up To Be Cowboys
TTITLE3=Good Hearted Woman
TTITLE4=Intro To >
TTITLE5=Nobody Knows I'm Elvis
TTITLE6=Ain't No Good Chain Gang
TTITLE7=Folsom Prison Blues
TTITLE8=Blue Eyes Crying in the Rain
TTITLE9=Help Me Make It Through the Night
TTITLE10=Sunday Morning Coming Down
TTITLE11=Ring Of Fire
TTITLE12=Valentine
TTITLE13=Best Of All Possible Worlds
TTITLE14=Desperados Waiting For The Train
TTITLE15=Are You Sure Hank Done It This Way
TTITLE16=Angels Flying Too Close to the Ground
TTITLE17=Me and Bobby McGee
EXTD=
EXTT0=
EXTT1=
EXTT2=
EXTT3=
EXTT4=
EXTT5=
EXTT6=
EXTT7=
EXTT8=
EXTT9=
EXTT10=
EXTT11=
EXTT12=
EXTT13=
EXTT14=
EXTT15=
EXTT16=
EXTT17=
PLAYORDER=
